<?xml version="1.0" encoding="utf-8"?>
<!-- Generator: Adobe Illustrator 26.3.1, SVG Export Plug-In . SVG Version: 6.00 Build 0)  -->
<svg version="1.1" id="Layer_1" xmlns="http://www.w3.org/2000/svg" xmlns:xlink="http://www.w3.org/1999/xlink" x="0px" y="0px"
	 width="576.53064px" height="140.81633px" viewBox="0 0 576.53064 140.81633"
	 style="enable-background:new 0 0 576.53064 140.81633;" xml:space="preserve">
<style type="text/css">
	.st0{enable-background:new    ;}
	.st1{fill:#FFFFFF;}
	.st2{fill:#53A5FF;}
</style>
<g>
	<g id="West_Coast_Real_Estate" transform="translate(0 -1)">
		<g class="st0">
			<path class="st1" d="M196.17694,86.13015c0-0.4817,0.10619-0.69408,0.42696-0.69408c0.74663,0,2.45448,2.02971,2.45448,4.96369
				c0,8.05752-15.90375,20.97581-21.1871,30.47404c-0.53426,0.85393-0.80138,1.60275-1.38818,1.60275
				c-1.81512,0-3.57552-2.29683-3.57552-6.61898c0-7.25833,4.42944-16.33179,4.42944-16.33179
				c-2.45448,2.02751-14.24954,13.61019-18.51915,21.82973c-0.80138,1.49326-1.17468,2.56176-2.08224,2.56176
				c-0.63936,0-2.40083-1.28307-2.40083-4.91114c0-9.92738,12.00853-23.43029,12.00853-28.55382
				c0-1.27869-0.80136-2.18736-2.24208-2.18736c-5.97745,0-17.71887,8.27209-17.71887,16.70402
				c0,2.82889,1.44072,3.94994,1.44072,4.37689c0,0.21239-0.15984,0.37441-0.58679,0.37441
				c-1.22725,0-4.48309-2.34937-4.48309-6.29712c0-9.07346,12.91611-16.8113,20.49411-16.8113
				c4.26961,0,6.08475,2.88143,6.08475,5.17607c0,5.12353-10.03468,18.99866-10.9948,27.32549
				c3.94884-6.99339,19.26688-24.22947,22.46909-24.22947c1.28088,0,1.86768,1.01157,1.86768,1.76039
				c0,1.0685-5.9238,11.42065-5.9238,23.05588C181.71391,110.5742,196.17694,95.47074,196.17694,86.13015z"/>
			<path class="st1" d="M202.75322,104.75658c2.56177,0,3.46825,1.06631,3.46825,2.56177
				c0,2.61431-4.85641,6.45695-11.15353,7.84513c-0.48061,1.22614-0.74773,2.40192-0.74773,3.41568
				c0,1.60056,0.80028,2.34719,2.6154,2.34719c4.58928,0,9.87375-5.06879,11.74142-7.25614
				c0.37332-0.4817,0.53316-0.4817,0.69409-0.4817c0.15984,0,0.21347,0.10728,0.21347,0.26712
				c0,0.21458-0.05363,0.37222-0.3744,0.80138c-2.18736,3.04128-8.11226,8.43192-13.34198,8.43192
				c-3.30949,0-5.28337-1.70784-5.28337-5.23081C190.58484,111.6405,198.05666,104.75658,202.75322,104.75658z M203.5535,105.98492
				c-2.40192,0.05255-6.08363,4.10758-8.00606,8.11007c4.8575-1.33344,8.70015-5.76288,8.70015-7.36343
				C204.24759,106.1973,203.98047,105.98492,203.5535,105.98492z"/>
			<path class="st1" d="M221.70262,107.53074c0,0.37441-0.15984,0.53425-0.37332,0.53425
				c-0.31967,0-0.85391-0.47952-2.40193-0.47952c-3.04128,0-7.0985,1.60056-7.0985,5.33591
				c0,3.31059,3.68282,4.53674,3.68282,7.5802c0,1.97496-1.44072,3.41568-3.68282,3.41568
				c-3.36203,0-5.38956-3.31059-5.38956-4.91114c0-0.42696,0.15984-0.53425,0.31967-0.53425
				c0.16093,0,0.26714,0.15984,0.37332,0.37441c0.74773,1.38817,2.40193,2.45448,3.89629,2.45448
				c1.33453,0,1.92133-0.90647,1.92133-1.97497c0-2.98872-4.00249-4.64402-4.00249-8.27209
				c0-4.10977,5.12354-6.61899,8.37938-6.61899C220.52902,104.43472,221.70262,106.51698,221.70262,107.53074z"/>
			<path class="st1" d="M227.20274,122.15469c2.82889,0,7.6853-5.71033,9.39314-8.27209
				c0.32077-0.47951,0.48061-0.53425,0.64044-0.53425s0.32077,0.10728,0.32077,0.32186c0,0.21239-0.21349,0.47951-0.37332,0.74664
				c-2.56177,4.10977-7.15215,9.60552-10.99478,9.60552c-2.29465,0-4.16342-1.70785-4.16342-5.28336
				c0-3.09383,1.81514-7.57801,4.32326-12.16729h-0.31967c-2.40193,0-3.30949-1.70784-3.30949-2.24209
				c0-0.15984,0.10728-0.26713,0.21347-0.26713c0.37332,0,0.90758,0.4817,2.61542,0.4817c0.58679,0,1.28088-0.05473,2.08116-0.16203
				l0.53424-0.90647c2.45448-4.05503,4.48309-6.45914,5.97745-6.45914c0.85393,0,2.08116,1.17578,2.08116,1.70784
				c0,0.32186-0.31967,0.4817-0.96121,1.28307c-1.01375,1.27869-1.97386,2.50703-2.82779,3.68281
				c1.01376-0.10947,1.97388-0.21458,2.7216-0.21458c1.44072,0,2.1348,0.26713,2.1348,0.5868s-0.53314,0.80138-0.80028,0.80138
				c-0.21347,0-0.53424-0.10729-1.33452-0.10729c-1.33453,0-2.6154,0.26713-3.89629,0.64154
				c-4.26961,6.24238-6.08365,11.04623-6.08365,14.08751C225.17523,121.35551,225.92186,122.15469,227.20274,122.15469z"/>
			<path class="st1" d="M248.23659,112.28204c0-12.11693,13.92986-25.67019,24.28419-25.67019
				c5.12354,0,7.95242,3.04127,7.95242,7.04375c0,3.84264-2.34937,7.41817-5.01733,7.41817
				c-1.01376,0-1.81403-0.47951-1.81403-0.90866c0-0.15765,0.15982-0.31967,0.58679-0.63934
				c1.76041-1.1736,4.16232-4.10977,4.16232-6.99121c0-2.08225-1.38708-3.57552-4.21597-3.57552
				c-9.55298,0-21.40167,13.0234-21.40167,24.44405c0,5.49575,2.7216,8.64431,8.27209,8.64431
				c5.01733,0,10.83493-4.64183,13.07593-7.31088c0.37442-0.47951,0.53427-0.47951,0.69409-0.47951
				c0.15985,0,0.2135,0.10509,0.2135,0.26712c0,0.21239-0.05365,0.37222-0.37332,0.79919
				c-2.29465,3.25584-8.53922,8.6465-15.37061,8.6465C253.09409,123.96982,248.23659,120.07243,248.23659,112.28204z"/>
			<path class="st1" d="M293.60828,106.99649c0,6.35186-7.63275,15.69244-12.91611,15.69244
				c-2.3483,0-4.58929-1.81513-4.58929-4.8564c0-4.59148,5.28339-9.50043,9.87265-10.67402
				c0.58789-0.16203,1.17468-0.21458,1.38818-0.21458c0.48059,0,0.64044,0.26712,0.64044,0.53425
				c0,0.31967-0.26712,0.4817-0.90756,0.85392c-3.68283,1.97497-7.20471,6.93866-7.20471,10.46163
				c0,1.49327,0.58682,2.29464,1.76151,2.29464c3.57553,0,9.07236-7.79258,9.07236-13.61019
				c0-2.24209-0.85391-2.93399-1.97388-2.93399c-1.12103,0-1.97495,0.63935-2.56177,1.22615
				c-0.10727,0-0.26712-0.15984-0.26712-0.42696c0-0.90866,1.76041-2.56177,4.05612-2.56177
				C292.16757,102.78162,293.60828,104.27708,293.60828,106.99649z"/>
			<path class="st1" d="M311.11804,106.03747c-6.45914,0-14.19699,9.28585-14.19699,13.34307
				c0,1.06631,0.42697,1.44072,0.90756,1.44072c1.44073,0,5.01733-3.25585,8.53812-7.73785
				c1.70786-2.18954,1.92242-2.77634,2.2421-2.77634c0.63934,0,1.70786,1.28088,1.70786,2.08006
				c0,1.12105-2.61432,3.57771-2.61432,5.87235c0,1.33344,0.63934,1.76039,1.4407,1.76039
				c3.09601,0,6.72409-4.58928,8.05753-6.34967c0.37442-0.4817,0.48169-0.53425,0.64154-0.53425
				c0.15982,0,0.26712,0.10509,0.26712,0.26713c0,0.21238-0.05475,0.37222-0.32187,0.79918
				c-1.65311,2.6165-5.71033,7.36562-9.49823,7.36562c-1.97498,0-3.36313-1.38818-3.36313-3.3084
				c0-0.80137,0.10727-1.38817,0.42694-2.18954c-2.82669,3.36314-6.51059,6.83137-9.33948,6.83137
				c-1.38708,0-2.98874-0.95902-2.98874-3.46823c0-6.29713,9.50153-15.05092,16.54529-15.05092
				c1.60056,0,2.50702,0.53425,3.04126,1.28088c0.3197,0.42696,0.05255,0.80138-0.42694,0.58899
				C311.9194,106.14256,311.54501,106.03747,311.11804,106.03747z"/>
			<path class="st1" d="M329.85614,107.53074c0,0.37441-0.16202,0.53425-0.37442,0.53425
				c-0.31967,0-0.85391-0.47952-2.40192-0.47952c-3.04126,0-7.09848,1.60056-7.09848,5.33591
				c0,3.31059,3.6828,4.53674,3.6828,7.5802c0,1.97496-1.44073,3.41568-3.6828,3.41568c-3.36316,0-5.39066-3.31059-5.39066-4.91114
				c0-0.42696,0.16202-0.53425,0.31967-0.53425c0.16202,0,0.26712,0.15984,0.37439,0.37441
				c0.74664,1.38817,2.40195,2.45448,3.8952,2.45448c1.33563,0,1.92242-0.90647,1.92242-1.97497
				c0-2.98872-4.00247-4.64402-4.00247-8.27209c0-4.10977,5.1235-6.61899,8.37936-6.61899
				C328.68256,104.43472,329.85614,106.51698,329.85614,107.53074z"/>
			<path class="st1" d="M335.35626,122.15469c2.82889,0,7.6853-5.71033,9.39316-8.27209
				c0.31967-0.47951,0.47949-0.53425,0.63934-0.53425c0.15982,0,0.31967,0.10728,0.31967,0.32186
				c0,0.21239-0.2124,0.47951-0.37222,0.74664c-2.56177,4.10977-7.15106,9.60552-10.99588,9.60552
				c-2.29465,0-4.16232-1.70785-4.16232-5.28336c0-3.09383,1.81512-7.57801,4.32434-12.16729h-0.31967
				c-2.40411,0-3.31058-1.70784-3.31058-2.24209c0-0.15984,0.10727-0.26713,0.21457-0.26713
				c0.37222,0,0.90646,0.4817,2.61432,0.4817c0.58679,0,1.28088-0.05473,2.08005-0.16203l0.53427-0.90647
				c2.45667-4.05503,4.48416-6.45914,5.97745-6.45914c0.85391,0,2.08224,1.17578,2.08224,1.70784
				c0,0.32186-0.31967,0.4817-0.96121,1.28307c-1.01376,1.27869-1.97498,2.50703-2.82889,3.68281
				c1.01596-0.10947,1.97498-0.21458,2.72379-0.21458c1.44073,0,2.13263,0.26713,2.13263,0.5868s-0.53207,0.80138-0.79919,0.80138
				c-0.21237,0-0.53424-0.10729-1.33344-0.10729c-1.3356,0-2.61649,0.26713-3.89737,0.64154
				c-4.26962,6.24238-6.08255,11.04623-6.08255,14.08751C333.32877,121.35551,334.07321,122.15469,335.35626,122.15469z"/>
			<path class="st1" d="M376.66855,112.17475c-0.58679-0.58679-1.17358-1.17359-1.17358-1.97496
				c0-0.31968,0.21457-0.5868,0.37222-0.5868c0.37442,0,1.49545,1.06631,3.84482,1.06631
				c7.31088,0,18.62427-10.45944,18.62427-18.19948c0-2.2399-1.22617-2.93398-2.93399-2.93398
				c-5.97745,0-17.07843,12.59425-24.76373,22.46908c-3.09601,4.00249-4.85638,8.27209-4.85638,11.15353
				c0,0.3744-0.1073,0.53425-0.42697,0.53425c-0.64154,0-2.66907-1.22615-2.66907-3.73536
				c0-6.56425,13.29053-24.65862,13.29053-29.78216c0-1.22614-0.80136-1.92023-2.2421-1.92023
				c-6.51169,0-15.47787,9.28585-15.47787,17.87761c0,3.15076,0.85394,3.7901,0.85394,4.00468
				c0,0.15984-0.1073,0.31967-0.47952,0.31967c-1.28308,0-3.84482-1.76258-3.84482-5.49794
				c0-9.07346,10.56891-18.35712,18.09436-18.35712c4.21487,0,6.08255,2.61431,6.08255,5.49575
				c0,4.64182-3.30841,8.6465-7.15103,15.58516c6.45914-8.21954,16.97333-20.0146,24.01709-20.0146
				c3.30838,0,5.97745,2.29464,5.97745,6.13728c0,9.71281-12.70154,18.35931-22.20197,18.35931
				c2.82889,2.66905,3.73535,8.43193,8.37936,8.43193c3.68283,0,7.79041-4.85641,9.23111-6.83138
				c0.32187-0.47951,0.48172-0.53425,0.64154-0.53425c0.15985,0,0.32187,0.10729,0.32187,0.32187
				c0,0.21238-0.21457,0.47951-0.37442,0.74663c-2.08224,3.20111-6.99121,9.2333-11.9549,9.2333
				C378.2713,123.54285,379.49744,114.94891,376.66855,112.17475z"/>
			<path class="st1" d="M407.74252,104.75658c2.56177,0,3.46826,1.06631,3.46826,2.56177
				c0,2.61431-4.85641,6.45695-11.15353,7.84513c-0.48172,1.22614-0.74884,2.40192-0.74884,3.41568
				c0,1.60056,0.80139,2.34719,2.61432,2.34719c4.59146,0,9.87485-5.06879,11.74252-7.25614
				c0.37442-0.4817,0.53424-0.4817,0.69409-0.4817c0.15982,0,0.21457,0.10728,0.21457,0.26712
				c0,0.21458-0.05475,0.37222-0.37442,0.80138c-2.18735,3.04128-8.11224,8.43192-13.34308,8.43192
				c-3.30838,0-5.28336-1.70784-5.28336-5.23081C395.57306,111.6405,403.04379,104.75658,407.74252,104.75658z M408.54172,105.98492
				c-2.40192,0.05255-6.08475,4.10758-8.00497,8.11007c4.85641-1.33344,8.69907-5.76288,8.69907-7.36343
				C409.23581,106.1973,408.96869,105.98492,408.54172,105.98492z"/>
			<path class="st1" d="M428.7731,106.03747c-6.45697,0-14.19699,9.28585-14.19699,13.34307
				c0,1.06631,0.42694,1.44072,0.90866,1.44072c1.4407,0,5.01404-3.25585,8.53922-7.73785
				c1.70782-2.18954,1.92023-2.77634,2.2399-2.77634c0.64151,0,1.70782,1.28088,1.70782,2.08006
				c0,1.12105-2.61432,3.57771-2.61432,5.87235c0,1.33344,0.63937,1.76039,1.44073,1.76039
				c3.09381,0,6.72409-4.58928,8.05969-6.34967c0.37222-0.4817,0.47952-0.53425,0.63934-0.53425
				c0.15985,0,0.26715,0.10509,0.26715,0.26713c0,0.21238-0.05255,0.37222-0.3197,0.79918
				c-1.65527,2.6165-5.71033,7.36562-9.5004,7.36562c-1.97498,0-3.36316-1.38818-3.36316-3.3084
				c0-0.80137,0.1073-1.38817,0.42697-2.18954c-2.82889,3.36314-6.51169,6.83137-9.34058,6.83137
				c-1.38599,0-2.98654-0.95902-2.98654-3.46823c0-6.29713,9.49823-15.05092,16.54419-15.05092
				c1.60056,0,2.50919,0.53425,3.04126,1.28088c0.32187,0.42696,0.05475,0.80138-0.42697,0.58899
				C429.57227,106.14256,429.20004,106.03747,428.7731,106.03747z"/>
			<path class="st1" d="M439.18436,121.67518c2.66907,0,6.99121-5.4432,8.96619-8.27209
				c0.32187-0.4817,0.47949-0.53425,0.64154-0.53425c0.15982,0,0.31967,0.10509,0.31967,0.31967s-0.21457,0.4817-0.37442,0.74883
				c-2.56177,4.05503-6.88391,9.60551-10.56674,9.60551c-2.18735,0-3.94992-1.60056-3.94992-5.01624
				c0-5.23082,3.73755-13.98242,7.25833-19.5351c2.50922-3.8952,4.43164-6.40222,6.67154-6.40222
				c1.28088,0,2.2421,0.95901,2.2421,1.38598c0,0.32186-0.47952,0.37441-1.06631,0.85392
				c-1.60275,1.17579-2.88364,2.77415-4.48419,5.23082c-3.63025,5.49575-7.52545,14.30209-7.52545,19.15849
				C437.31668,120.92635,437.95822,121.67518,439.18436,121.67518z"/>
			<path class="st1" d="M459.63031,115.48315c0-5.28336,7.15103-11.10098,13.29053-12.00745
				c-2.93619-0.58679-4.85641-2.50921-4.85641-5.39065c0-5.81761,8.27209-11.4732,15.31586-11.4732
				c5.01624,0,7.79257,2.71941,7.79257,6.29712c0,3.20111-1.92242,6.13728-4.10977,6.13728
				c-1.01376,0-1.81512-0.47951-1.81512-0.90865c0-0.15984,0.16202-0.31968,0.58679-0.63935
				c1.33563-0.9612,3.25586-3.25584,3.25586-5.55049c0-1.76258-1.33344-2.98872-4.05505-2.98872
				c-6.35184,0-12.96866,4.74912-12.96866,9.87265c0,2.82889,1.27872,3.79009,3.94995,3.79009
				c1.97278,0,3.84045-0.26712,4.37469-0.15984c1.6553,0.21239,1.92242,2.66905,1.92242,3.14856
				c0,0.21239-0.05475,0.26713-0.31967,0.26713c-0.42917,0-1.86987-0.32186-4.05722-0.32186
				c-6.88611,0-13.45035,5.9249-13.45035,11.15572c0,3.36095,2.18951,5.33591,6.61896,5.33591
				c5.65561,0,11.74252-4.00249,14.67651-7.31088c0.42697-0.47951,0.53424-0.47951,0.69409-0.47951
				c0.15982,0,0.21237,0.10509,0.21237,0.26712c0,0.21239-0.05255,0.37222-0.37222,0.79919
				c-2.61432,3.47042-9.44568,8.6465-17.13098,8.6465C464.06195,123.96982,459.63031,121.14093,459.63031,115.48315z"/>
			<path class="st1" d="M500.73239,107.53074c0,0.37441-0.16202,0.53425-0.37442,0.53425
				c-0.31967,0-0.85391-0.47952-2.40192-0.47952c-3.04129,0-7.09851,1.60056-7.09851,5.33591
				c0,3.31059,3.68283,4.53674,3.68283,7.5802c0,1.97496-1.44073,3.41568-3.68283,3.41568
				c-3.36313,0-5.39066-3.31059-5.39066-4.91114c0-0.42696,0.16205-0.53425,0.3197-0.53425
				c0.16202,0,0.26712,0.15984,0.37439,0.37441c0.74664,1.38817,2.40195,2.45448,3.8952,2.45448
				c1.33563,0,1.92242-0.90647,1.92242-1.97497c0-2.98872-4.0025-4.64402-4.0025-8.27209c0-4.10977,5.12354-6.61899,8.37939-6.61899
				C499.55881,104.43472,500.73239,106.51698,500.73239,107.53074z"/>
			<path class="st1" d="M506.23251,122.15469c2.82889,0,7.68527-5.71033,9.39316-8.27209
				c0.31964-0.47951,0.48169-0.53425,0.63934-0.53425c0.16199,0,0.32184,0.10728,0.32184,0.32186
				c0,0.21239-0.2124,0.47951-0.37439,0.74664c-2.56177,4.10977-7.15106,9.60552-10.99371,9.60552
				c-2.29462,0-4.16229-1.70785-4.16229-5.28336c0-3.09383,1.81293-7.57801,4.32214-12.16729h-0.31967
				c-2.40192,0-3.31058-1.70784-3.31058-2.24209c0-0.15984,0.10947-0.26713,0.21457-0.26713
				c0.37439,0,0.90646,0.4817,2.61432,0.4817c0.58679,0,1.28305-0.05473,2.08224-0.16203l0.53424-0.90647
				c2.45447-4.05503,4.48199-6.45914,5.97748-6.45914c0.85388,0,2.08221,1.17578,2.08221,1.70784
				c0,0.32186-0.32184,0.4817-0.96118,1.28307c-1.01379,1.27869-1.97498,2.50703-2.82889,3.68281
				c1.01376-0.10947,1.97495-0.21458,2.72159-0.21458c1.44073,0,2.13483,0.26713,2.13483,0.5868s-0.53424,0.80138-0.79919,0.80138
				c-0.2146,0-0.53424-0.10729-1.33563-0.10729c-1.33563,0-2.61432,0.26713-3.89737,0.64154
				c-4.26962,6.24238-6.08255,11.04623-6.08255,14.08751C504.20502,121.35551,504.95163,122.15469,506.23251,122.15469z"/>
			<path class="st1" d="M531.4801,106.03747c-6.45691,0-14.19696,9.28585-14.19696,13.34307
				c0,1.06631,0.42694,1.44072,0.90863,1.44072c1.44073,0,5.0141-3.25585,8.53925-7.73785
				c1.70782-2.18954,1.92023-2.77634,2.23987-2.77634c0.64154,0,1.70789,1.28088,1.70789,2.08006
				c0,1.12105-2.61432,3.57771-2.61432,5.87235c0,1.33344,0.63934,1.76039,1.44073,1.76039
				c3.09381,0,6.72406-4.58928,8.05969-6.34967c0.37219-0.4817,0.47949-0.53425,0.63934-0.53425s0.26709,0.10509,0.26709,0.26713
				c0,0.21238-0.05255,0.37222-0.31964,0.79918c-1.65527,2.6165-5.71033,7.36562-9.50043,7.36562
				c-1.97498,0-3.36316-1.38818-3.36316-3.3084c0-0.80137,0.1073-1.38817,0.427-2.18954
				c-2.82892,3.36314-6.51172,6.83137-9.34064,6.83137c-1.38593,0-2.98651-0.95902-2.98651-3.46823
				c0-6.29713,9.49823-15.05092,16.54419-15.05092c1.60052,0,2.50922,0.53425,3.04126,1.28088
				c0.3219,0.42696,0.05475,0.80138-0.42694,0.58899C532.2793,106.14256,531.9071,106.03747,531.4801,106.03747z"/>
			<path class="st1" d="M541.67682,122.15469c2.82892,0,7.6853-5.71033,9.39313-8.27209
				c0.3219-0.47951,0.48169-0.53425,0.64154-0.53425s0.3219,0.10728,0.3219,0.32186c0,0.21239-0.2146,0.47951-0.37445,0.74664
				c-2.56177,4.10977-7.1532,9.60552-10.99365,9.60552c-2.29468,0-4.16455-1.70785-4.16455-5.28336
				c0-3.09383,1.81512-7.57801,4.3222-12.16729h-0.3197c-2.39972,0-3.30841-1.70784-3.30841-2.24209
				c0-0.15984,0.1073-0.26713,0.2124-0.26713c0.37439,0,0.90863,0.4817,2.61652,0.4817c0.58679,0,1.28088-0.05473,2.08221-0.16203
				l0.53424-0.90647c2.45233-4.05503,4.48199-6.45914,5.97748-6.45914c0.85394,0,2.08008,1.17578,2.08008,1.70784
				c0,0.32186-0.3197,0.4817-0.96124,1.28307c-1.01373,1.27869-1.97278,2.50703-2.82666,3.68281
				c1.01154-0.10947,1.97278-0.21458,2.71942-0.21458c1.44067,0,2.13696,0.26713,2.13696,0.5868s-0.53424,0.80138-0.80139,0.80138
				c-0.21454,0-0.53424-0.10729-1.33557-0.10729c-1.33344,0-2.61432,0.26713-3.8952,0.64154
				c-4.26965,6.24238-6.08478,11.04623-6.08478,14.08751C539.64929,121.35551,540.39813,122.15469,541.67682,122.15469z"/>
			<path class="st1" d="M561.53595,104.75658c2.56177,0,3.46826,1.06631,3.46826,2.56177c0,2.61431-4.85638,6.45695-11.1535,7.84513
				c-0.48175,1.22614-0.74884,2.40192-0.74884,3.41568c0,1.60056,0.80139,2.34719,2.61432,2.34719
				c4.59143,0,9.87482-5.06879,11.74249-7.25614c0.37439-0.4817,0.53424-0.4817,0.69409-0.4817s0.2146,0.10728,0.2146,0.26712
				c0,0.21458-0.05475,0.37222-0.37445,0.80138c-2.18732,3.04128-8.11224,8.43192-13.34308,8.43192
				c-3.30835,0-5.28333-1.70784-5.28333-5.23081C549.36652,111.6405,556.83722,104.75658,561.53595,104.75658z M562.33514,105.98492
				c-2.40192,0.05255-6.08472,4.10758-8.00494,8.11007c4.85638-1.33344,8.69904-5.76288,8.69904-7.36343
				C563.02924,106.1973,562.76215,105.98492,562.33514,105.98492z"/>
		</g>
	</g>
	<g id="AP_Properties" transform="translate(0 -3)">
		<g class="st0">
			<path class="st1" d="M180.38377,71.89251h-2.30013c-0.2726,0-0.49593-0.07226-0.67-0.21786
				c-0.17516-0.1456-0.31091-0.335-0.40834-0.56818l-4.83342-11.96804h-20.23685l-4.8334,11.96804
				c-0.07773,0.21348-0.21349,0.3985-0.40836,0.55286c-0.19377,0.15546-0.42696,0.23318-0.69846,0.23318h-2.27057l16.85838-41.20171
				h2.94165L180.38377,71.89251z M171.26981,56.92589l-8.38596-20.81926c-0.2912-0.67986-0.57365-1.49546-0.84515-2.44682
				c-0.11606,0.46637-0.24304,0.90866-0.3777,1.32577c-0.13684,0.41711-0.28246,0.80028-0.43681,1.14951l-8.38594,20.7908H171.26981
				z"/>
			<path class="st1" d="M197.88368,30.6908c4.83342,0,8.47791,1.05755,10.93349,3.17374
				c2.45557,2.11619,3.6839,5.13448,3.6839,9.05485c0,1.80637-0.34047,3.46605-1.01923,4.98011
				c-0.67986,1.51407-1.65092,2.81903-2.91209,3.916c-1.26227,1.09696-2.79495,1.95088-4.60132,2.56286
				c-1.80528,0.61088-3.83389,0.91632-6.08475,0.91632h-7.65901v16.59783h-2.99858V30.6908H197.88368z M197.88368,52.90699
				c1.80528,0,3.42554-0.2518,4.86188-0.75648s2.65482-1.20316,3.65434-2.09649c0.99953-0.89333,1.76697-1.94651,2.30121-3.15951
				c0.53316-1.21301,0.80028-2.53768,0.80028-3.97511c0-3.16389-0.97105-5.59975-2.91208-7.30869
				c-1.94104-1.70784-4.84328-2.56176-8.70563-2.56176h-7.65901v19.85805H197.88368z"/>
			<path class="st1" d="M245.75255,30.6908c4.83342,0,8.47791,1.05755,10.93349,3.17374
				c2.45557,2.11619,3.6839,5.13448,3.6839,9.05485c0,1.80637-0.34048,3.46605-1.01923,4.98011
				c-0.67987,1.51407-1.65091,2.81903-2.91211,3.916c-1.26227,1.09696-2.79494,1.95088-4.60132,2.56286
				c-1.80527,0.61088-3.83388,0.91632-6.08473,0.91632h-7.65901v16.59783h-2.99858V30.6908H245.75255z M245.75255,52.90699
				c1.80528,0,3.42554-0.2518,4.86188-0.75648s2.65482-1.20316,3.65434-2.09649c0.99953-0.89333,1.76697-1.94651,2.30121-3.15951
				c0.53317-1.21301,0.80029-2.53768,0.80029-3.97511c0-3.16389-0.97107-5.59975-2.91209-7.30869
				c-1.94104-1.70784-4.84328-2.56176-8.70563-2.56176h-7.65901v19.85805H245.75255z"/>
			<path class="st1" d="M297.17505,71.89251h-2.56287c-0.32953,0-0.60651-0.05364-0.82983-0.15984
				c-0.22333-0.10729-0.43134-0.30654-0.62512-0.59775l-13.22046-16.71387c-0.15546-0.21238-0.31528-0.3974-0.48059-0.55286
				c-0.16422-0.15546-0.34924-0.27698-0.55286-0.36346c-0.20364-0.08758-0.44669-0.14999-0.72803-0.1894
				c-0.28137-0.03941-0.62622-0.05803-1.03348-0.05803h-5.38736v18.6352h-2.99857V30.6908h10.54044
				c4.73599,0,8.28415,0.91632,10.64337,2.75116c2.35812,1.83484,3.5372,4.52797,3.5372,8.08051
				c0,1.57209-0.27148,3.00843-0.81561,4.30902c-0.543,1.30059-1.32465,2.44134-2.3439,3.42116
				c-1.01923,0.98091-2.25192,1.78119-3.69812,2.40302c-1.4462,0.62074-3.07193,1.03894-4.8772,1.25132
				c0.46637,0.29121,0.88345,0.67986,1.25241,1.16484L297.17505,71.89251z M278.88907,51.04369
				c1.82391,0,3.45947-0.21786,4.90567-0.65467s2.66907-1.06302,3.66968-1.87863c0.99954-0.81561,1.76151-1.79543,2.28589-2.94056
				c0.52328-1.14513,0.78604-2.43587,0.78604-3.8733c0-2.9307-0.95682-5.10492-2.86829-6.52155
				c-1.91257-1.41773-4.70316-2.12605-8.37173-2.12605h-7.54187v17.99475H278.88907z"/>
			<path class="st1" d="M340.50171,51.27687c0,3.18359-0.47513,6.0716-1.42542,8.66292
				c-0.95242,2.59132-2.29245,4.80386-4.01779,6.63869c-1.72974,1.83483-3.80106,3.25146-6.21829,4.25099
				c-2.41727,1.00063-5.07974,1.49984-7.99185,1.49984c-2.91208,0-5.57239-0.49921-7.97867-1.49984
				c-2.40851-0.99953-4.47543-2.41616-6.20081-4.25099c-1.72974-1.83484-3.06973-4.04737-4.01999-6.63869
				s-1.42758-5.47933-1.42758-8.66292c0-3.16389,0.47733-6.04204,1.42758-8.63337s2.29025-4.80495,4.01999-6.63869
				c1.72537-1.83484,3.7923-3.25694,6.20081-4.26632c2.40628-1.00938,5.06659-1.51407,7.97867-1.51407
				c2.91211,0,5.57458,0.50031,7.99185,1.49984c2.41724,0.99953,4.48856,2.42163,6.21829,4.26523
				c1.72534,1.84469,3.06537,4.06269,4.01779,6.65402C340.02658,45.23483,340.50171,48.11298,340.50171,51.27687z
				 M337.41663,51.27687c0-2.87268-0.3985-5.45525-1.1933-7.74551c-0.797-2.29026-1.92242-4.23129-3.37845-5.82309
				c-1.45605-1.5918-3.20331-2.81028-5.24176-3.65435c-2.03848-0.84517-4.28934-1.26665-6.75476-1.26665
				c-2.44791,0-4.69,0.42149-6.72626,1.26665c-2.03848,0.84407-3.7923,2.06255-5.25491,3.65435
				c-1.46698,1.5918-2.60336,3.53283-3.40692,5.82309c-0.80576,2.29026-1.20862,4.87283-1.20862,7.74551
				c0,2.89238,0.40286,5.47933,1.20862,7.75974c0.80356,2.28151,1.93994,4.21815,3.40692,5.80886
				c1.46262,1.59289,3.21643,2.8059,5.25491,3.64011c2.03625,0.83531,4.27835,1.25242,6.72626,1.25242
				c2.46542,0,4.71628-0.41711,6.75476-1.25242c2.03845-0.83421,3.78571-2.04723,5.24176-3.64011
				c1.45602-1.5907,2.58145-3.52735,3.37845-5.80886C337.01813,56.7562,337.41663,54.16926,337.41663,51.27687z"/>
			<path class="st1" d="M360.65207,30.6908c4.83231,0,8.47791,1.05755,10.93237,3.17374
				c2.45667,2.11619,3.685,5.13448,3.685,9.05485c0,1.80637-0.33939,3.46605-1.01813,4.98011
				c-0.68097,1.51407-1.65094,2.81903-2.91211,3.916c-1.26337,1.09696-2.79605,1.95088-4.60242,2.56286
				c-1.80417,0.61088-3.83389,0.91632-6.08472,0.91632h-7.65903v16.59783h-2.9975V30.6908H360.65207z M360.65207,52.90699
				c1.80637,0,3.42661-0.2518,4.86295-0.75648s2.65375-1.20316,3.65216-2.09649c1.00064-0.89333,1.76917-1.94651,2.30341-3.15951
				c0.53207-1.21301,0.79919-2.53768,0.79919-3.97511c0-3.16389-0.96997-5.59975-2.91211-7.30869
				c-1.94211-1.70784-4.84326-2.56176-8.7056-2.56176h-7.65903v19.85805H360.65207z"/>
			<path class="st1" d="M408.40378,69.41723l-0.05692,2.47528H383.6532V30.6908h24.69366v2.47418h-21.694v16.65585h18.05496v2.41726
				h-18.05496v17.17915H408.40378z"/>
			<path class="st1" d="M445.84933,71.89251h-2.56177c-0.33063,0-0.6087-0.05364-0.83203-0.15984
				c-0.22333-0.10729-0.42914-0.30654-0.62402-0.59775l-13.22046-16.71387c-0.15546-0.21238-0.31528-0.3974-0.47949-0.55286
				c-0.16641-0.15546-0.35034-0.27698-0.55396-0.36346c-0.20364-0.08758-0.44669-0.14999-0.72913-0.1894
				c-0.28027-0.03941-0.62622-0.05803-1.03345-0.05803h-5.38629v18.6352h-2.99966V30.6908h10.54044
				c4.73819,0,8.28525,0.91632,10.64557,2.75116c2.35596,1.83484,3.5361,4.52797,3.5361,8.08051
				c0,1.57209-0.27148,3.00843-0.81668,4.30902c-0.54303,1.30059-1.32248,2.44134-2.34283,3.42116
				c-1.02032,0.98091-2.25082,1.78119-3.69812,2.40302c-1.4473,0.62074-3.07193,1.03894-4.8761,1.25132
				c0.46417,0.29121,0.88239,0.67986,1.25241,1.16484L445.84933,71.89251z M427.56229,51.04369
				c1.82605,0,3.45947-0.21786,4.90674-0.65467c1.4473-0.43681,2.66907-1.06302,3.66968-1.87863
				c1.00064-0.81561,1.76257-1.79543,2.28589-2.94056s0.78604-2.43587,0.78604-3.8733c0-2.9307-0.95682-5.10492-2.86829-6.52155
				c-1.91367-1.41773-4.70316-2.12605-8.37283-2.12605h-7.54077v17.99475H427.56229z"/>
			<path class="st1" d="M477.85168,33.223h-14.47287v38.66951h-2.99969V33.223h-14.55826V30.6908h32.03082V33.223z"/>
			<path class="st1" d="M487.77905,71.89251h-2.99966V30.6908h2.99966V71.89251z"/>
			<path class="st1" d="M524.70129,69.41723l-0.05908,2.47528h-24.6915V30.6908h24.6915v2.47418h-21.694v16.65585h18.05496v2.41726
				h-18.05496v17.17915H524.70129z"/>
			<path class="st1" d="M553.73242,35.69828c-0.17511,0.33062-0.42914,0.49484-0.75757,0.49484
				c-0.25397,0-0.578-0.17845-0.9765-0.53863c-0.3985-0.35909-0.93713-0.75649-1.61591-1.1933s-1.52832-0.83969-2.54865-1.20863
				c-1.01813-0.36894-2.2749-0.55286-3.77039-0.55286c-1.49323,0-2.80914,0.21348-3.94556,0.64044
				c-1.13416,0.42696-2.08441,1.00938-2.85297,1.74725c-0.76636,0.73788-1.34875,1.5918-1.74506,2.56176
				c-0.3985,0.97106-0.59991,1.9903-0.59991,3.0577c0,1.39802,0.29773,2.55301,0.88892,3.46495
				c0.59119,0.91304,1.37506,1.68923,2.34503,2.32967c0.96997,0.64044,2.07129,1.17907,3.30402,1.61588
				s2.50043,0.86925,3.80103,1.29621s2.56616,0.89771,3.79889,1.41225c1.23267,0.51454,2.33405,1.15936,3.30402,1.93555
				c0.97211,0.77729,1.75159,1.73302,2.34497,2.8683c0.59338,1.13637,0.88898,2.54863,0.88898,4.23676
				c0,1.72864-0.29559,3.35438-0.88898,4.8772c-0.59338,1.52502-1.45166,2.84969-2.57709,3.97511s-2.50482,2.01438-4.13385,2.66467
				c-1.63123,0.6492-3.49451,0.97544-5.5921,0.97544c-2.71722,0-5.05566-0.48061-7.01526-1.44181
				c-1.96185-0.96121-3.67847-2.27603-5.15424-3.94556l0.81451-1.28088c0.23212-0.29121,0.5036-0.43681,0.81451-0.43681
				c0.17517,0,0.3985,0.11604,0.67004,0.34924c0.27148,0.23318,0.60211,0.52001,0.98962,0.85939
				c0.38977,0.33938,0.85394,0.70832,1.39697,1.10572c0.54517,0.3985,1.17578,0.76743,1.89392,1.10681
				c0.7182,0.33938,1.54364,0.62621,2.47638,0.8594c0.93054,0.23209,1.9881,0.34924,3.17267,0.34924
				c1.63116,0,3.08502-0.24742,4.3681-0.74226c1.28088-0.49593,2.36255-1.17031,3.24493-2.02423
				c0.88458-0.85393,1.55896-1.86768,2.02533-3.04237c0.46637-1.17469,0.69843-2.43148,0.69843-3.77148
				c0-1.45605-0.29559-2.65372-0.88892-3.59632c-0.59119-0.94041-1.37286-1.72755-2.34283-2.35814
				c-0.97217-0.63059-2.07129-1.15936-3.30621-1.58742c-1.23053-0.42587-2.49823-0.84407-3.79883-1.25132
				c-1.3006-0.40835-2.56836-0.86377-3.79889-1.36846c-1.23486-0.50469-2.33405-1.15061-3.30621-1.93665
				c-0.97211-0.78605-1.75159-1.76587-2.34277-2.94056c-0.59338-1.17469-0.88898-2.64497-0.88898-4.41193
				c0-1.37831,0.26276-2.70846,0.78607-3.98935c0.52325-1.28088,1.28961-2.41178,2.30121-3.3916
				c1.0072-0.98092,2.25519-1.76696,3.73975-2.35923c1.48669-0.59118,3.1792-0.88786,5.08191-0.88786
				c2.13477,0,4.05286,0.33938,5.75189,1.01923c1.6991,0.67985,3.24493,1.7177,4.64404,3.11572L553.73242,35.69828z"/>
		</g>
	</g>
	<polygon class="st1" points="64.99863,12.78878 38.14438,33.89946 18.47504,49.37336 16.79103,50.70066 16.79103,122.28288 
		25.58958,122.28288 25.58958,54.9592 43.57492,40.81261 67.71391,21.8324 89.60108,39.04125 89.60108,70.73884 89.60108,70.73884 
		89.60108,95.31702 48.94724,95.31702 48.94724,104.11556 98.39478,104.11556 98.39478,63.42775 98.39478,63.42775 
		98.39478,35.59803 98.39478,35.59803 98.39478,34.78029 97.28343,33.90432 70.42918,12.79363 67.71391,10.65587 	"/>
	<rect x="68.42123" y="61.99367" class="st1" width="7.65202" height="7.65081"/>
	<rect x="59.44434" y="61.99367" class="st1" width="7.6508" height="7.65081"/>
	<rect x="59.44434" y="70.79222" class="st1" width="7.6508" height="7.6508"/>
	<rect x="68.42123" y="70.79222" class="st1" width="7.65202" height="7.6508"/>
	<path id="Path_8_00000050645389636567189290000002874778469118415493_" class="st2" d="M44.68383,92.10426h0.0267v21.3679h63.97992
		v-70.5946l7.11456,5.59555l1.68401,1.3273v72.46788H35.90955V96.86265h-0.0267V59.58414l1.684-1.3273l11.4944-9.03879
		L64.75597,36.8768l2.71528-2.1329l2.71528,2.1329l15.06383,11.9239v11.16199l-4.79964-3.8363L67.47129,45.92047L54.49186,56.12638
		l-9.81041,7.71386v28.26408L44.68383,92.10426z"/>
</g>
</svg>
